<svg 
 xmlns="http://www.w3.org/2000/svg"
 xmlns:xlink="http://www.w3.org/1999/xlink"
 width="34px" height="35px">
<path fill-rule="evenodd"  fill="rgb(255, 255, 255)"
 d="M28.835,13.309 L28.835,11.963 C28.835,8.743 27.709,5.750 25.666,3.528 C23.573,1.248 20.695,-0.001 17.556,-0.001 L16.458,-0.001 C13.319,-0.001 10.441,1.248 8.348,3.528 C6.305,5.750 5.179,8.743 5.179,11.963 L5.179,13.309 C2.701,13.478 0.731,15.566 0.731,18.118 L0.731,20.221 C0.731,22.875 2.868,25.038 5.491,25.038 L8.173,25.038 C8.653,25.038 9.045,24.642 9.045,24.155 L9.045,14.176 C9.045,13.692 8.653,13.294 8.173,13.294 L6.923,13.294 L6.923,11.963 C6.923,6.146 11.022,1.763 16.451,1.763 L17.549,1.763 C22.985,1.763 27.077,6.146 27.077,11.963 L27.077,13.294 L25.826,13.294 C25.347,13.294 24.954,13.692 24.954,14.176 L24.954,24.148 C24.954,24.634 25.347,25.031 25.826,25.031 L27.047,25.031 C26.691,29.633 23.559,30.700 22.105,30.943 C21.706,29.700 20.550,28.804 19.191,28.804 L17.010,28.804 C15.324,28.804 13.951,30.193 13.951,31.899 C13.951,33.605 15.324,35.001 17.010,35.001 L19.198,35.001 C20.608,35.001 21.793,34.031 22.149,32.722 C22.861,32.619 23.988,32.362 25.107,31.700 C26.684,30.767 28.552,28.861 28.799,25.023 C31.292,24.869 33.268,22.772 33.268,20.214 L33.268,18.111 C33.276,15.566 31.313,13.470 28.835,13.309 ZM7.316,23.266 L5.506,23.266 C3.841,23.266 2.490,21.898 2.490,20.214 L2.490,18.111 C2.490,16.427 3.841,15.058 5.506,15.058 L7.316,15.058 L7.316,23.266 ZM19.198,33.237 L17.010,33.237 C16.284,33.237 15.695,32.641 15.695,31.906 C15.695,31.171 16.284,30.575 17.010,30.575 L19.198,30.575 C19.925,30.575 20.514,31.171 20.514,31.906 C20.514,32.641 19.925,33.237 19.198,33.237 ZM31.532,20.214 C31.532,21.898 30.180,23.266 28.516,23.266 L26.706,23.266 L26.706,15.058 L28.516,15.058 C30.180,15.058 31.532,16.427 31.532,18.111 L31.532,20.214 Z"/>
</svg>