<svg 
 xmlns="http://www.w3.org/2000/svg"
 xmlns:xlink="http://www.w3.org/1999/xlink"
 width="36px" height="35px">
<path fill-rule="evenodd"  fill="rgb(255, 255, 255)"
 d="M30.045,18.541 L30.045,16.493 L35.510,16.493 L35.510,18.541 L30.045,18.541 ZM27.911,10.610 L32.645,7.877 L33.668,9.650 L28.935,12.383 L27.911,10.610 ZM23.122,6.583 L25.855,1.850 L27.629,2.874 L24.896,7.606 L23.122,6.583 ZM16.960,0.024 L19.008,0.024 L19.008,5.489 L16.960,5.489 L16.960,0.024 ZM8.344,2.890 L10.118,1.866 L12.851,6.599 L11.076,7.622 L8.344,2.890 ZM2.331,25.414 L7.064,22.683 L8.088,24.456 L3.355,27.189 L2.331,25.414 ZM2.315,9.679 L3.339,7.905 L8.073,10.638 L7.048,12.411 L2.315,9.679 ZM5.955,18.573 L0.490,18.573 L0.490,16.525 L5.955,16.525 L5.955,18.573 ZM17.982,8.223 C17.988,8.223 17.994,8.223 18.000,8.223 C20.484,8.223 22.819,9.188 24.578,10.943 C26.340,12.702 27.311,15.044 27.311,17.533 C27.311,19.809 26.481,22.000 24.972,23.703 C23.957,24.849 23.399,26.299 23.399,27.785 L23.399,34.976 L12.602,34.976 L12.602,27.755 C12.602,26.284 12.046,24.849 11.038,23.715 C9.526,22.013 8.692,19.822 8.689,17.546 C8.682,12.414 12.851,8.233 17.982,8.223 ZM14.650,32.929 L21.350,32.929 L21.350,30.188 L14.650,30.188 L14.650,32.929 ZM19.010,17.549 C19.010,16.984 18.550,16.524 17.984,16.524 C17.418,16.524 16.958,16.984 16.958,17.549 C16.958,18.115 17.418,18.575 17.984,18.575 C18.550,18.575 19.010,18.115 19.010,17.549 ZM12.569,22.354 C13.911,23.865 14.650,25.782 14.650,27.755 L14.650,28.139 L16.959,28.139 L16.959,20.446 C15.767,20.024 14.910,18.885 14.910,17.549 C14.910,15.855 16.288,14.475 17.984,14.475 C19.679,14.475 21.058,15.855 21.058,17.549 C21.058,18.885 20.201,20.024 19.008,20.446 L19.008,28.139 L21.350,28.139 L21.350,27.785 C21.350,25.798 22.092,23.866 23.439,22.346 C24.616,21.018 25.263,19.309 25.263,17.533 C25.263,15.591 24.506,13.765 23.130,12.393 C21.756,11.020 19.931,10.266 17.986,10.270 C13.983,10.278 10.732,13.540 10.737,17.543 C10.740,19.319 11.390,21.028 12.569,22.354 ZM33.686,25.387 L32.662,27.162 L27.929,24.428 L28.953,22.655 L33.686,25.387 Z"/>
</svg>