<svg 
 xmlns="http://www.w3.org/2000/svg"
 xmlns:xlink="http://www.w3.org/1999/xlink"
 width="36px" height="36px">
<path fill-rule="evenodd"  fill="rgb(255, 255, 255)"
 d="M18.000,0.490 C8.347,0.490 0.490,8.342 0.490,18.001 C0.490,27.653 8.347,35.511 18.000,35.511 C27.652,35.511 35.511,27.653 35.511,18.001 C35.511,8.340 27.652,0.490 18.000,0.490 ZM2.256,17.999 C2.256,15.718 2.741,13.551 3.618,11.595 L11.130,32.169 C5.876,29.614 2.256,24.228 2.256,17.999 L2.256,17.999 ZM18.000,33.745 C16.453,33.745 14.963,33.519 13.552,33.102 L18.276,19.376 L23.113,32.635 C23.148,32.715 23.185,32.783 23.226,32.855 C21.594,33.427 19.835,33.745 18.000,33.745 L18.000,33.745 ZM20.167,10.624 L20.167,10.623 C21.112,10.573 21.966,10.476 21.966,10.476 C22.814,10.376 22.715,9.127 21.867,9.175 C21.867,9.175 19.318,9.373 17.673,9.373 C16.127,9.373 13.527,9.175 13.527,9.175 C12.681,9.125 12.584,10.425 13.430,10.476 C13.430,10.476 14.234,10.575 15.082,10.623 L17.532,17.344 L14.086,27.673 L8.355,10.623 C9.302,10.573 10.155,10.476 10.155,10.476 C11.003,10.376 10.904,9.127 10.056,9.175 C10.056,9.175 7.507,9.373 5.862,9.373 C5.566,9.373 5.219,9.364 4.845,9.352 C7.663,5.079 12.499,2.256 18.000,2.256 C22.096,2.256 25.830,3.824 28.633,6.385 C28.562,6.377 28.499,6.372 28.429,6.372 C26.882,6.372 25.788,7.721 25.788,9.167 C25.788,10.466 26.536,11.560 27.334,12.861 C27.934,13.906 28.635,15.254 28.635,17.203 C28.635,18.552 28.119,20.111 27.434,22.294 L25.865,27.541 L20.167,10.624 ZM31.819,10.446 C33.047,12.692 33.746,15.262 33.746,18.002 C33.746,23.813 30.597,28.881 25.916,31.607 L25.914,31.606 L30.723,17.703 C31.619,15.457 31.924,13.665 31.924,12.061 C31.924,11.483 31.889,10.947 31.819,10.446 L31.819,10.446 Z"/>
</svg>