<svg 
 xmlns="http://www.w3.org/2000/svg"
 xmlns:xlink="http://www.w3.org/1999/xlink"
 viewBox="0 0 45 30">
<defs>
<filter id="Filter_0">
    <feFlood flood-color="rgb(255, 255, 255)" flood-opacity="1" result="floodOut" />
    <feComposite operator="atop" in="floodOut" in2="SourceGraphic" result="compOut" />
    <feBlend mode="normal" in="compOut" in2="SourceGraphic" />
</filter>

</defs>
<g filter="url(#Filter_0)">
<path fill-rule="evenodd"  fill="rgb(0, 0, 0)"
 d="M42.833,8.675 L41.102,11.432 C41.086,11.455 41.063,11.475 41.046,11.498 C41.028,11.520 41.012,11.544 40.992,11.563 C40.969,11.585 40.942,11.600 40.917,11.618 C40.897,11.633 40.877,11.651 40.854,11.664 C40.823,11.680 40.790,11.690 40.757,11.702 C40.737,11.709 40.717,11.721 40.696,11.726 C40.642,11.738 40.585,11.746 40.529,11.746 C40.468,11.746 40.409,11.738 40.349,11.723 C40.330,11.717 40.312,11.705 40.293,11.698 C40.256,11.684 40.218,11.672 40.182,11.651 L37.398,9.987 C37.079,9.795 36.975,9.383 37.167,9.065 C37.359,8.748 37.772,8.645 38.093,8.835 L39.726,9.811 C38.288,4.855 33.693,1.404 28.495,1.404 C23.032,1.404 18.351,5.096 17.109,10.381 C17.035,10.691 16.759,10.899 16.452,10.899 C16.401,10.899 16.349,10.894 16.298,10.882 C15.935,10.797 15.709,10.435 15.794,10.075 C17.180,4.178 22.402,0.061 28.494,0.061 C34.195,0.061 39.240,3.787 40.932,9.165 L41.688,7.963 C41.885,7.650 42.300,7.553 42.617,7.749 C42.933,7.947 43.028,8.361 42.833,8.675 ZM17.800,12.373 L20.499,12.373 C21.614,12.373 22.523,13.275 22.523,14.387 L22.523,27.929 C22.523,29.039 21.614,29.944 20.499,29.944 L17.800,29.944 C16.684,29.944 15.776,29.039 15.776,27.929 L15.776,14.387 C15.776,13.276 16.684,12.373 17.800,12.373 ZM17.125,27.928 C17.125,28.298 17.428,28.600 17.800,28.600 L20.499,28.600 C20.871,28.600 21.173,28.298 21.173,27.928 L21.173,14.387 C21.173,14.016 20.871,13.715 20.499,13.715 L17.800,13.715 C17.428,13.715 17.125,14.016 17.125,14.387 L17.125,27.928 ZM13.077,29.942 L13.077,29.944 L10.379,29.944 C9.263,29.944 8.355,29.039 8.355,27.929 L8.355,14.387 C8.355,13.276 9.263,12.373 10.379,12.373 L13.077,12.373 C14.194,12.373 15.101,13.276 15.101,14.387 L15.101,27.928 C15.101,29.039 14.194,29.942 13.077,29.942 ZM13.752,14.387 C13.752,14.016 13.450,13.715 13.077,13.715 L10.379,13.715 C10.006,13.715 9.704,14.016 9.704,14.387 L9.704,27.928 C9.704,28.298 10.006,28.600 10.379,28.600 L13.077,28.600 C13.450,28.600 13.752,28.298 13.752,27.929 L13.752,14.387 ZM5.657,29.942 L5.657,29.944 L2.959,29.944 C1.843,29.944 0.935,29.039 0.935,27.929 L0.935,14.387 C0.935,13.276 1.843,12.373 2.959,12.373 L5.657,12.373 C6.773,12.373 7.680,13.276 7.680,14.387 L7.680,27.928 C7.680,29.039 6.773,29.942 5.657,29.942 ZM6.332,14.387 C6.332,14.016 6.029,13.715 5.657,13.715 L2.959,13.715 C2.586,13.715 2.284,14.016 2.284,14.387 L2.284,27.928 C2.284,28.298 2.586,28.600 2.959,28.600 L5.657,28.600 C6.029,28.600 6.332,28.298 6.332,27.929 L6.332,14.387 ZM27.819,9.301 L27.819,3.642 C27.819,3.272 28.121,2.971 28.494,2.971 C28.867,2.971 29.169,3.271 29.169,3.642 L29.169,9.301 C30.735,9.582 31.973,10.812 32.254,12.373 L34.452,12.373 C34.825,12.373 35.127,12.672 35.127,13.044 C35.127,13.415 34.825,13.715 34.452,13.715 L32.254,13.715 C31.933,15.494 30.370,16.849 28.494,16.849 C26.386,16.849 24.671,15.142 24.671,13.044 C24.671,11.175 26.033,9.620 27.819,9.301 ZM28.494,15.505 C29.858,15.505 30.968,14.401 30.968,13.044 C30.968,11.687 29.858,10.582 28.494,10.582 C27.130,10.582 26.021,11.687 26.021,13.044 C26.021,14.402 27.130,15.505 28.494,15.505 ZM28.494,24.682 C33.260,24.682 37.508,21.846 39.318,17.457 C39.459,17.114 39.853,16.951 40.198,17.091 C40.542,17.232 40.708,17.624 40.566,17.967 C38.548,22.861 33.811,26.025 28.494,26.025 C28.121,26.025 27.819,25.724 27.819,25.354 C27.819,24.983 28.121,24.682 28.494,24.682 Z"/>
</g>
</svg>