<svg 
 xmlns="http://www.w3.org/2000/svg"
 xmlns:xlink="http://www.w3.org/1999/xlink"
 width="43px" height="43px">
<defs>
<filter id="Filter_0">
    <feFlood flood-color="rgb(255, 255, 255)" flood-opacity="1" result="floodOut" />
    <feComposite operator="atop" in="floodOut" in2="SourceGraphic" result="compOut" />
    <feBlend mode="normal" in="compOut" in2="SourceGraphic" />
</filter>

</defs>
<g filter="url(#Filter_0)">
<path fill-rule="evenodd"  fill="rgb(0, 0, 0)"
 d="M37.917,0.503 C35.391,0.503 33.336,2.557 33.336,5.083 C33.336,5.874 33.536,6.617 33.890,7.267 L26.384,14.773 C25.350,13.967 24.055,13.484 22.645,13.484 C21.236,13.484 19.941,13.967 18.905,14.772 L13.049,8.915 C13.318,8.462 13.482,7.939 13.482,7.375 C13.482,5.689 12.112,4.320 10.428,4.320 C8.743,4.320 7.374,5.689 7.374,7.375 C7.374,9.058 8.743,10.428 10.428,10.428 C10.993,10.428 11.515,10.265 11.969,9.996 L17.825,15.851 C17.021,16.888 16.537,18.182 16.537,19.591 C16.537,21.002 17.021,22.295 17.825,23.331 L8.155,33.002 C7.341,32.263 6.266,31.810 5.083,31.810 C2.555,31.810 0.501,33.864 0.501,36.391 C0.501,38.917 2.555,40.973 5.083,40.973 C7.610,40.973 9.665,38.917 9.665,36.391 C9.665,35.601 9.463,34.857 9.110,34.208 L18.906,24.411 C19.751,25.067 20.770,25.508 21.883,25.648 L21.883,33.405 C19.720,33.770 18.065,35.652 18.065,37.918 C18.065,40.445 20.119,42.501 22.646,42.501 C25.173,42.501 27.228,40.445 27.228,37.918 C27.228,35.652 25.573,33.770 23.410,33.405 L23.410,25.648 C24.523,25.508 25.542,25.067 26.386,24.411 L32.242,30.267 C31.973,30.722 31.809,31.245 31.809,31.810 C31.809,33.494 33.178,34.864 34.863,34.864 C36.547,34.864 37.917,33.494 37.917,31.810 C37.917,30.125 36.547,28.755 34.863,28.755 C34.298,28.755 33.776,28.918 33.322,29.188 L27.465,23.331 C28.270,22.295 28.754,21.002 28.754,19.591 C28.754,18.182 28.270,16.888 27.465,15.852 L34.845,8.472 C35.659,9.211 36.735,9.666 37.917,9.666 C40.444,9.666 42.499,7.610 42.499,5.083 C42.499,2.557 40.444,0.503 37.917,0.503 ZM8.901,7.375 C8.901,6.532 9.585,5.847 10.428,5.847 C11.270,5.847 11.955,6.532 11.955,7.375 C11.955,8.216 11.270,8.902 10.428,8.902 C9.585,8.902 8.901,8.216 8.901,7.375 ZM5.083,39.445 C3.397,39.445 2.028,38.075 2.028,36.391 C2.028,34.706 3.397,33.337 5.083,33.337 C6.767,33.337 8.137,34.706 8.137,36.391 C8.137,38.075 6.767,39.445 5.083,39.445 ZM25.700,37.918 C25.700,39.603 24.330,40.973 22.645,40.973 C20.961,40.973 19.591,39.603 19.591,37.918 C19.591,36.234 20.961,34.864 22.645,34.864 C24.330,34.864 25.700,36.234 25.700,37.918 ZM22.645,24.174 C20.118,24.174 18.064,22.118 18.064,19.591 C18.064,17.065 20.118,15.011 22.645,15.011 C25.172,15.011 27.227,17.065 27.227,19.591 C27.227,22.118 25.172,24.174 22.645,24.174 ZM36.391,31.810 C36.391,32.651 35.705,33.337 34.863,33.337 C34.020,33.337 33.336,32.651 33.336,31.810 C33.336,30.967 34.020,30.282 34.863,30.282 C35.705,30.282 36.391,30.967 36.391,31.810 ZM37.917,8.138 C36.233,8.138 34.863,6.768 34.863,5.083 C34.863,3.398 36.233,2.029 37.917,2.029 C39.602,2.029 40.972,3.398 40.972,5.083 C40.972,6.768 39.602,8.138 37.917,8.138 Z"/>
</g>
</svg>