<svg 
 xmlns="http://www.w3.org/2000/svg"
 xmlns:xlink="http://www.w3.org/1999/xlink"
 viewBox="0 0 40 40">
<path fill-rule="evenodd"  fill="rgb(255, 255, 255)"
 d="M35.000,14.005 L35.000,20.995 C35.000,21.866 34.590,22.635 33.963,23.136 C34.589,23.637 35.000,24.404 35.000,25.276 L35.000,32.267 C35.000,33.774 33.794,35.000 32.311,35.000 L2.688,35.000 C1.206,35.000 0.000,33.774 0.000,32.266 L0.000,25.276 C0.000,24.405 0.410,23.637 1.036,23.136 C0.410,22.635 0.000,21.866 0.000,20.995 L0.000,14.005 C0.000,13.134 0.410,12.365 1.036,11.865 C0.410,11.363 0.000,10.596 0.000,9.723 L0.000,2.734 C0.000,1.227 1.206,0.000 2.688,0.000 L32.312,0.000 C33.794,0.000 35.000,1.227 35.000,2.734 L35.000,9.725 C35.000,10.596 34.590,11.364 33.963,11.865 C34.590,12.365 35.000,13.133 35.000,14.005 ZM33.834,2.734 C33.834,1.880 33.151,1.188 32.311,1.188 L2.688,1.188 C1.849,1.188 1.167,1.880 1.167,2.734 L1.167,9.725 C1.167,10.577 1.849,11.272 2.688,11.272 L2.688,11.270 L32.312,11.270 C33.151,11.270 33.834,10.577 33.834,9.723 L33.834,2.734 ZM33.834,14.005 C33.834,13.152 33.151,12.458 32.311,12.458 L2.688,12.458 C1.849,12.458 1.167,13.152 1.167,14.005 L1.167,20.995 C1.167,21.848 1.849,22.543 2.688,22.543 L32.312,22.543 C33.151,22.543 33.834,21.848 33.834,20.995 L33.834,14.005 ZM33.834,25.276 C33.834,24.423 33.151,23.729 32.311,23.729 L2.688,23.729 C1.849,23.729 1.167,24.423 1.167,25.276 L1.167,32.267 C1.167,33.119 1.849,33.814 2.688,33.813 L32.312,33.813 C33.151,33.813 33.834,33.119 33.834,32.266 L33.834,25.276 ZM30.334,30.255 C30.011,30.255 29.750,29.989 29.750,29.662 C29.750,29.333 30.011,29.067 30.334,29.067 C30.655,29.067 30.917,29.333 30.917,29.662 C30.917,29.989 30.655,30.255 30.334,30.255 ZM29.166,28.475 C28.845,28.475 28.583,28.209 28.583,27.882 C28.583,27.554 28.845,27.288 29.166,27.288 C29.489,27.288 29.750,27.554 29.750,27.882 C29.750,28.209 29.489,28.475 29.166,28.475 ZM28.000,30.255 C27.678,30.255 27.417,29.989 27.417,29.662 C27.417,29.333 27.678,29.067 28.000,29.067 C28.322,29.067 28.583,29.333 28.583,29.662 C28.583,29.989 28.322,30.255 28.000,30.255 ZM26.833,28.475 C26.511,28.475 26.250,28.209 26.250,27.882 C26.250,27.554 26.511,27.288 26.833,27.288 C27.155,27.288 27.417,27.554 27.417,27.882 C27.417,28.209 27.155,28.475 26.833,28.475 ZM25.666,30.255 C25.345,30.255 25.083,29.989 25.083,29.662 C25.083,29.333 25.345,29.067 25.666,29.067 C25.989,29.067 26.250,29.333 26.250,29.662 C26.250,29.989 25.989,30.255 25.666,30.255 ZM24.500,28.475 C24.178,28.475 23.917,28.209 23.917,27.882 C23.917,27.554 24.178,27.288 24.500,27.288 C24.822,27.288 25.083,27.554 25.083,27.882 C25.083,28.209 24.822,28.475 24.500,28.475 ZM23.333,30.255 C23.011,30.255 22.750,29.989 22.750,29.662 C22.750,29.333 23.011,29.067 23.333,29.067 C23.655,29.067 23.917,29.333 23.917,29.662 C23.917,29.989 23.655,30.255 23.333,30.255 ZM22.167,28.475 C21.845,28.475 21.583,28.209 21.583,27.882 C21.583,27.554 21.845,27.288 22.167,27.288 C22.489,27.288 22.750,27.554 22.750,27.882 C22.750,28.209 22.489,28.475 22.167,28.475 ZM21.000,30.255 C20.678,30.255 20.417,29.989 20.417,29.662 C20.417,29.333 20.678,29.067 21.000,29.067 C21.322,29.067 21.583,29.333 21.583,29.662 C21.583,29.989 21.322,30.255 21.000,30.255 ZM19.833,28.475 C19.511,28.475 19.250,28.209 19.250,27.882 C19.250,27.554 19.511,27.288 19.833,27.288 C20.155,27.288 20.417,27.554 20.417,27.882 C20.417,28.209 20.155,28.475 19.833,28.475 ZM6.125,31.441 C4.678,31.441 3.500,30.243 3.500,28.772 C3.500,27.300 4.678,26.102 6.125,26.102 C7.572,26.102 8.750,27.300 8.750,28.772 C8.750,30.243 7.572,31.441 6.125,31.441 ZM6.125,27.288 C5.321,27.288 4.667,27.954 4.667,28.772 C4.667,29.589 5.321,30.255 6.125,30.255 C6.929,30.255 7.583,29.589 7.583,28.772 C7.583,27.954 6.929,27.288 6.125,27.288 ZM30.334,18.983 C30.011,18.983 29.750,18.718 29.750,18.390 C29.750,18.062 30.011,17.796 30.334,17.796 C30.655,17.796 30.917,18.062 30.917,18.390 C30.917,18.718 30.655,18.983 30.334,18.983 ZM29.166,17.203 C28.845,17.203 28.583,16.938 28.583,16.611 C28.583,16.282 28.845,16.017 29.166,16.017 C29.489,16.017 29.750,16.282 29.750,16.611 C29.750,16.938 29.489,17.203 29.166,17.203 ZM28.000,18.983 C27.678,18.983 27.417,18.718 27.417,18.390 C27.417,18.062 27.678,17.796 28.000,17.796 C28.322,17.796 28.583,18.062 28.583,18.390 C28.583,18.718 28.322,18.983 28.000,18.983 ZM26.833,17.203 C26.511,17.203 26.250,16.938 26.250,16.611 C26.250,16.282 26.511,16.017 26.833,16.017 C27.155,16.017 27.417,16.282 27.417,16.611 C27.417,16.938 27.155,17.203 26.833,17.203 ZM25.666,18.983 C25.345,18.983 25.083,18.718 25.083,18.390 C25.083,18.062 25.345,17.796 25.666,17.796 C25.989,17.796 26.250,18.062 26.250,18.390 C26.250,18.718 25.989,18.983 25.666,18.983 ZM24.500,17.203 C24.178,17.203 23.917,16.938 23.917,16.611 C23.917,16.282 24.178,16.017 24.500,16.017 C24.822,16.017 25.083,16.282 25.083,16.611 C25.083,16.938 24.822,17.203 24.500,17.203 ZM23.333,18.983 C23.011,18.983 22.750,18.718 22.750,18.390 C22.750,18.062 23.011,17.796 23.333,17.796 C23.655,17.796 23.917,18.062 23.917,18.390 C23.917,18.718 23.655,18.983 23.333,18.983 ZM22.167,17.203 C21.845,17.203 21.583,16.938 21.583,16.611 C21.583,16.282 21.845,16.017 22.167,16.017 C22.489,16.017 22.750,16.282 22.750,16.611 C22.750,16.938 22.489,17.203 22.167,17.203 ZM21.000,18.983 C20.678,18.983 20.417,18.718 20.417,18.390 C20.417,18.062 20.678,17.796 21.000,17.796 C21.322,17.796 21.583,18.062 21.583,18.390 C21.583,18.718 21.322,18.983 21.000,18.983 ZM19.833,17.203 C19.511,17.203 19.250,16.938 19.250,16.611 C19.250,16.282 19.511,16.017 19.833,16.017 C20.155,16.017 20.417,16.282 20.417,16.611 C20.417,16.938 20.155,17.203 19.833,17.203 ZM6.125,20.170 C4.678,20.170 3.500,18.972 3.500,17.500 C3.500,16.029 4.678,14.831 6.125,14.831 C7.572,14.831 8.750,16.029 8.750,17.500 C8.750,18.972 7.572,20.170 6.125,20.170 ZM6.125,16.017 C5.321,16.017 4.667,16.682 4.667,17.500 C4.667,18.318 5.321,18.983 6.125,18.983 C6.929,18.983 7.583,18.318 7.583,17.500 C7.583,16.682 6.929,16.017 6.125,16.017 ZM30.334,7.711 C30.011,7.711 29.750,7.446 29.750,7.119 C29.750,6.791 30.011,6.525 30.334,6.525 C30.655,6.525 30.917,6.791 30.917,7.119 C30.917,7.446 30.655,7.711 30.334,7.711 ZM29.166,5.932 C28.845,5.932 28.583,5.666 28.583,5.339 C28.583,5.011 28.845,4.747 29.166,4.747 C29.489,4.747 29.750,5.011 29.750,5.339 C29.750,5.666 29.489,5.932 29.166,5.932 ZM28.000,7.711 C27.678,7.711 27.417,7.446 27.417,7.119 C27.417,6.791 27.678,6.525 28.000,6.525 C28.322,6.525 28.583,6.791 28.583,7.119 C28.583,7.446 28.322,7.711 28.000,7.711 ZM26.833,5.932 C26.511,5.932 26.250,5.666 26.250,5.339 C26.250,5.011 26.511,4.747 26.833,4.747 C27.155,4.747 27.417,5.011 27.417,5.339 C27.417,5.666 27.155,5.932 26.833,5.932 ZM25.666,7.711 C25.345,7.711 25.083,7.446 25.083,7.119 C25.083,6.791 25.345,6.525 25.666,6.525 C25.989,6.525 26.250,6.791 26.250,7.119 C26.250,7.446 25.989,7.711 25.666,7.711 ZM24.500,5.932 C24.178,5.932 23.917,5.666 23.917,5.339 C23.917,5.011 24.178,4.747 24.500,4.747 C24.822,4.747 25.083,5.011 25.083,5.339 C25.083,5.666 24.822,5.932 24.500,5.932 ZM23.333,7.711 C23.011,7.711 22.750,7.446 22.750,7.119 C22.750,6.791 23.011,6.525 23.333,6.525 C23.655,6.525 23.917,6.791 23.917,7.119 C23.917,7.446 23.655,7.711 23.333,7.711 ZM22.167,5.932 C21.845,5.932 21.583,5.666 21.583,5.339 C21.583,5.011 21.845,4.747 22.167,4.747 C22.489,4.747 22.750,5.011 22.750,5.339 C22.750,5.666 22.489,5.932 22.167,5.932 ZM21.000,7.711 C20.678,7.711 20.417,7.446 20.417,7.119 C20.417,6.791 20.678,6.525 21.000,6.525 C21.322,6.525 21.583,6.791 21.583,7.119 C21.583,7.446 21.322,7.711 21.000,7.711 ZM19.833,5.932 C19.511,5.932 19.250,5.666 19.250,5.339 C19.250,5.011 19.511,4.747 19.833,4.747 C20.155,4.747 20.417,5.011 20.417,5.339 C20.417,5.666 20.155,5.932 19.833,5.932 ZM6.125,8.899 C4.678,8.899 3.500,7.702 3.500,6.229 C3.500,4.757 4.678,3.560 6.125,3.560 C7.572,3.560 8.750,4.757 8.750,6.229 C8.750,7.702 7.572,8.899 6.125,8.899 ZM6.125,4.747 C5.321,4.747 4.667,5.411 4.667,6.229 C4.667,7.047 5.321,7.711 6.125,7.711 C6.929,7.711 7.583,7.047 7.583,6.229 C7.583,5.411 6.929,4.747 6.125,4.747 Z"/>
</svg>